<svg version="1.1" id="Layer_1" xmlns="http://www.w3.org/2000/svg" xmlns:xlink="http://www.w3.org/1999/xlink" x="0px" y="0px"
	 width="100%" viewBox="0 0 1008 768" enable-background="new 0 0 1008 768" xml:space="preserve">
<path fill="#000000" opacity="1.000000" stroke="none" 
	d="
M382.162720,451.876801 
	C376.364716,465.118164 367.888000,469.776428 356.105011,466.237305 
	C348.958374,464.090729 344.970703,458.749023 342.605042,451.946228 
	C334.625427,428.999603 326.603363,406.067749 318.629364,383.119141 
	C312.130341,364.415314 305.496948,345.755310 299.266968,326.961914 
	C295.173798,314.614410 298.266479,308.824280 310.442474,304.075928 
	C314.665802,302.428894 319.067078,301.434998 323.526154,301.085907 
	C328.819458,300.671539 332.875244,302.974243 335.148407,307.967621 
	C339.368896,317.238647 341.913361,327.097168 345.149597,336.710022 
	C350.137421,351.525818 354.890289,366.420624 359.813690,381.258362 
	C360.362885,382.913483 360.450531,384.921692 362.330566,385.973328 
	C364.376587,385.127747 364.425568,383.129028 364.975464,381.470581 
	C371.572693,361.572937 378.128448,341.661530 384.746033,321.770691 
	C386.108063,317.676697 387.293549,313.491669 390.045441,309.996155 
	C395.071899,303.611420 401.861145,301.599030 409.554535,302.495880 
	C417.530823,303.425690 423.062225,307.842743 425.636292,315.534088 
	C432.919525,337.296509 440.108856,359.090332 447.358917,380.863892 
	C448.086792,383.049835 448.976532,385.181854 450.046722,388.015747 
	C453.142242,383.085938 454.040344,378.028015 455.626892,373.289246 
	C462.440491,352.938141 468.982086,332.495850 475.820831,312.153351 
	C479.134125,302.297577 484.925934,299.330688 495.172943,301.649628 
	C499.743378,302.683899 504.152863,304.165924 508.144836,306.680878 
	C514.810730,310.880371 517.058594,315.723846 514.599426,323.221558 
	C507.703430,344.246521 500.496216,365.170349 493.301788,386.096252 
	C485.727356,408.127380 478.045593,430.121704 470.370697,452.118103 
	C466.912659,462.028900 459.579529,467.450378 449.999634,467.322388 
	C440.932220,467.201263 434.013519,461.746094 430.714203,452.017029 
	C423.606750,431.058472 416.543091,410.085114 409.429016,389.128815 
	C408.686310,386.940979 407.725861,384.827057 405.661530,382.439331 
	C397.866913,405.462341 390.072327,428.485321 382.162720,451.876801 
z"/>
<path fill="#000000" opacity="1.000000" stroke="none" 
	d="
M558.617188,464.548584 
	C556.546875,463.095001 554.672119,461.967194 553.073914,460.531464 
	C548.436523,456.365631 546.470398,451.343994 549.165588,445.332214 
	C552.771790,437.288269 556.469971,429.282440 560.292053,421.338867 
	C577.251770,386.090637 594.256836,350.864197 611.276001,315.644623 
	C615.519897,306.862274 621.972473,301.453125 632.334534,301.663086 
	C641.978455,301.858551 647.481018,307.408295 651.349731,315.438599 
	C663.919556,341.530151 676.519043,367.607361 689.101929,393.692596 
	C696.550537,409.134094 704.032715,424.559601 711.418579,440.031006 
	C717.352600,452.461060 714.631897,459.975830 702.155334,465.876984 
	C699.752686,467.013397 697.288635,468.055939 694.775818,468.916992 
	C686.077271,471.897888 679.834839,469.570129 675.596313,461.401398 
	C671.534668,453.573517 667.674744,445.628265 664.081482,437.576050 
	C662.562073,434.171173 660.561707,432.881226 656.868469,432.911560 
	C640.050598,433.049713 623.229980,433.041962 606.412292,432.882812 
	C602.559082,432.846344 600.281128,434.136017 598.728821,437.727295 
	C595.957214,444.139587 592.805603,450.389008 589.765503,456.683655 
	C583.131836,470.419037 576.272888,472.881653 562.522888,466.499664 
	C561.315186,465.939087 560.133057,465.323639 558.617188,464.548584 
M637.373230,383.046265 
	C635.155884,379.527679 634.588867,375.014862 630.823914,371.722076 
	C626.816956,380.349487 622.159424,388.096069 619.032471,397.543732 
	C627.673523,397.586029 635.449097,398.217010 643.433289,397.069000 
	C642.352600,391.774780 639.522949,387.964691 637.373230,383.046265 
z"/>
<path fill="#000000" opacity="1.000000" stroke="none" 
	d="
M752.687500,410.999939 
	C752.686829,379.856079 752.676025,349.212250 752.691406,318.568420 
	C752.697021,307.456329 757.555603,302.023926 768.580933,301.874420 
	C787.895569,301.612579 807.278748,300.829102 826.518005,302.061676 
	C848.447449,303.466492 875.499878,320.125946 880.348083,350.491119 
	C886.010376,385.955292 866.353027,414.710052 830.944336,421.729706 
	C821.165161,423.668396 811.010681,422.188446 801.029541,422.343475 
	C794.228088,422.449127 794.220398,422.376526 794.211975,429.275635 
	C794.203247,436.436951 794.286560,443.599304 794.190491,450.759338 
	C794.044434,461.650909 788.739990,467.051880 777.938782,467.362061 
	C774.445435,467.462433 770.931824,467.528503 767.451355,467.278320 
	C757.473511,466.561157 752.746338,461.479492 752.701843,451.470337 
	C752.642700,438.147125 752.687561,424.823425 752.687500,410.999939 
M794.207581,351.606201 
	C794.209229,359.771576 794.317566,367.939026 794.161621,376.101379 
	C794.096252,379.522522 795.280151,380.883301 798.787842,380.794159 
	C805.948730,380.612213 813.118164,380.800354 820.282837,380.722687 
	C831.860107,380.597198 839.817932,373.174347 839.890564,362.543671 
	C839.966492,351.417633 831.878784,343.518890 820.131104,343.350769 
	C813.966553,343.262512 807.799927,343.329315 801.634216,343.322266 
	C794.276123,343.313843 794.276123,343.312103 794.207581,351.606201 
z"/>
<path fill="#000000" opacity="1.000000" stroke="none" 
	d="
M251.997925,447.932678 
	C241.875366,460.678589 228.229874,466.673523 213.140549,469.078827 
	C194.470367,472.054871 176.784164,468.788696 160.854385,457.863678 
	C154.122086,453.246521 148.825424,447.356689 144.390030,440.647614 
	C139.812943,433.724213 140.083191,428.496521 144.983429,421.771912 
	C145.669357,420.830597 146.381302,419.903229 147.142944,419.022827 
	C157.464371,407.092316 165.984818,406.508453 177.737640,417.013306 
	C182.808304,421.545532 187.328308,426.657166 193.800217,429.507629 
	C200.845444,432.610626 207.421249,431.511749 213.890045,428.253632 
	C218.993851,425.682983 220.449219,420.798676 220.499680,415.660126 
	C220.544083,411.140350 217.187729,408.787628 213.471390,406.774963 
	C208.234024,403.938477 202.469864,403.040833 196.829926,401.645386 
	C185.800735,398.916473 175.144470,395.174225 165.153885,389.721924 
	C153.441757,383.330078 147.672562,372.753815 145.010040,360.200470 
	C139.918228,336.193298 151.875412,311.875732 175.082993,303.571991 
	C199.342987,294.891754 223.292038,297.045380 244.644592,313.019135 
	C254.439590,320.346710 255.252991,327.198608 248.458984,337.475677 
	C247.543488,338.860504 246.506897,340.173950 245.441650,341.449738 
	C236.389877,352.290436 227.139740,353.385773 216.714951,343.852692 
	C210.565781,338.229492 203.769821,337.500366 196.323334,338.435089 
	C190.526520,339.162781 186.444595,342.963257 185.711029,348.206421 
	C184.972427,353.485657 187.852127,356.955536 192.128448,359.606537 
	C196.927597,362.581665 202.296509,363.639130 207.726913,364.514374 
	C216.632996,365.949921 225.138733,368.806854 233.724365,371.464813 
	C250.829544,376.760254 259.885468,388.816895 261.997437,405.927032 
	C263.834473,420.809509 261.629700,435.187347 251.997925,447.932678 
z"/>
</svg>