<?xml version="1.0" standalone="no"?>
<!DOCTYPE svg PUBLIC "-//W3C//DTD SVG 20010904//EN"
 "http://www.w3.org/TR/2001/REC-SVG-20010904/DTD/svg10.dtd">
<svg version="1.0" xmlns="http://www.w3.org/2000/svg"
 width="500.000000pt" height="500.000000pt" viewBox="0 0 500.000000 500.000000"
 preserveAspectRatio="xMidYMid meet">

<g transform="translate(0.000000,500.000000) scale(0.100000,-0.100000)"
fill="#000000" stroke="none">
<path d="M3319 3357 c-100 -29 -200 -113 -242 -205 -18 -39 -22 -65 -22 -152
0 -94 3 -111 27 -161 32 -65 116 -151 173 -179 105 -51 247 -48 349 8 77 42
86 64 86 212 0 152 -4 166 -42 179 -38 14 -208 14 -242 1 -30 -11 -43 -61 -27
-102 9 -25 15 -27 73 -30 l63 -3 3 -57 3 -56 -51 -11 c-140 -30 -260 78 -248
224 5 62 40 115 99 150 51 30 140 26 202 -8 41 -22 52 -24 73 -15 30 14 64 67
64 101 0 73 -216 139 -341 104z"/>
<path d="M1555 3345 c-59 -22 -135 -84 -173 -139 -47 -71 -65 -143 -60 -240 6
-106 40 -177 120 -252 192 -177 488 -92 573 165 25 75 17 207 -15 276 -31 64
-111 144 -175 175 -62 31 -205 38 -270 15z m203 -174 c68 -35 102 -95 102
-180 0 -87 -37 -146 -115 -182 -51 -23 -89 -23 -140 0 -79 35 -121 112 -113
207 11 134 149 215 266 155z"/>
<path d="M4195 3346 c-26 -11 -48 -51 -177 -319 -82 -168 -148 -314 -148 -324
0 -41 84 -88 128 -72 15 6 35 34 59 84 l35 75 139 0 140 0 34 -75 c43 -95 64
-107 129 -75 54 26 65 53 43 108 -8 20 -76 161 -149 312 -110 225 -140 278
-162 288 -33 15 -33 15 -71 -2z m73 -351 l32 -65 -70 0 -70 0 32 65 c18 36 35
65 38 65 3 0 20 -29 38 -65z"/>
<path d="M512 3338 c-9 -9 -12 -93 -12 -344 0 -375 -4 -359 80 -359 80 0 80 1
80 217 0 114 4 188 9 186 6 -1 73 -87 150 -190 78 -103 152 -195 166 -204 18
-12 38 -15 67 -11 75 10 73 -2 73 361 0 259 -3 326 -14 339 -16 20 -120 24
-139 5 -9 -9 -12 -68 -12 -205 0 -106 -3 -193 -7 -193 -5 1 -75 92 -158 203
l-150 202 -60 3 c-38 2 -65 -2 -73 -10z"/>
<path d="M2242 3338 c-9 -9 -12 -93 -12 -344 0 -375 -4 -359 80 -359 80 0 80
1 80 217 0 114 4 188 9 186 6 -1 73 -87 150 -190 78 -103 152 -195 166 -204
18 -12 38 -15 67 -11 75 10 73 -2 73 361 0 259 -3 326 -14 339 -16 20 -120 24
-139 5 -9 -9 -12 -68 -12 -205 0 -106 -3 -193 -7 -193 -5 1 -75 92 -158 203
l-150 202 -60 3 c-38 2 -65 -2 -73 -10z"/>
<path d="M1067 2356 c-143 -39 -204 -224 -110 -336 32 -39 81 -64 173 -89 40
-11 83 -27 96 -36 31 -20 31 -59 -1 -90 -40 -41 -111 -29 -160 25 -28 31 -73
52 -95 45 -28 -9 -70 -63 -70 -91 0 -35 71 -108 128 -132 72 -31 130 -36 200
-18 86 22 136 58 167 119 42 86 28 207 -32 259 -23 21 -107 51 -188 68 -88 18
-120 65 -75 110 27 27 76 25 125 -5 66 -41 108 -28 144 43 26 49 -25 101 -124
127 -70 18 -113 18 -178 1z"/>
<path d="M1633 2340 c-35 -15 -43 -24 -43 -46 0 -24 188 -582 211 -626 14 -26
73 -42 101 -27 37 20 44 35 104 212 31 93 60 165 64 160 4 -4 31 -80 60 -168
30 -93 61 -169 74 -182 31 -32 66 -37 101 -15 27 17 40 47 138 331 117 342
117 340 52 367 -46 19 -79 18 -97 -3 -9 -10 -42 -98 -74 -195 -32 -98 -61
-174 -65 -170 -4 4 -30 79 -59 167 -59 180 -78 210 -135 208 -20 -1 -45 -9
-55 -18 -11 -10 -45 -93 -77 -191 -32 -95 -60 -170 -64 -166 -4 4 -30 79 -59
167 -29 88 -59 172 -67 188 -17 33 -49 35 -110 7z"/>
<path d="M3033 2350 c-31 -13 -36 -21 -193 -349 -160 -331 -158 -325 -74 -362
42 -19 47 -19 70 -5 13 9 40 48 59 86 l35 70 138 0 137 0 37 -79 c24 -50 45
-82 58 -86 29 -9 108 29 121 59 10 22 -3 56 -136 330 -82 168 -156 312 -164
320 -22 20 -62 27 -88 16z m97 -412 c0 -5 -29 -8 -65 -8 -36 0 -65 2 -65 5 0
2 15 34 32 70 l32 65 33 -62 c18 -35 32 -66 33 -70z"/>
<path d="M3655 2353 c-44 -10 -45 -21 -45 -357 0 -177 4 -326 8 -333 23 -37
133 -39 152 -3 6 10 10 52 10 93 l0 74 95 5 c80 4 105 10 152 34 107 55 160
165 135 282 -21 101 -90 171 -194 199 -50 12 -267 17 -313 6z m289 -177 c41
-17 62 -63 50 -109 -14 -46 -61 -68 -144 -65 l-65 3 -3 79 c-2 44 -1 85 2 93
7 18 116 17 160 -1z"/>
</g>
</svg>
